<svg width="72" height="72" viewBox="0 0 72 72" fill="none" xmlns="http://www.w3.org/2000/svg">
<path d="M66.903 46.5813H45.9203V69.2244L66.903 46.5813Z" fill="#7EE5C3"/>
<path d="M51.3182 25.8093H65.4251C63.569 10.3608 51.8751 1.5 36.3761 1.5C18.6497 1.5 5.09961 14.0722 5.09961 36.0155C5.09961 57.866 18.4176 70.5309 36.3761 70.5309C39.8363 70.5309 43.024 70.069 45.9203 69.2244C45.9203 68.1431 45.9203 66.7439 45.9203 64.1361V59.3658C45.9203 57.0124 45.9203 59.0477 45.9203 56.3764C45.9203 55.9 45.9203 55.5495 45.9203 55.4363C43.4099 57.214 40.2007 58.1687 36.5617 58.1907C26.3064 58.1443 19.2993 50.4897 19.2993 36.0155C19.2993 21.866 26.2135 13.8866 36.6545 13.8402C44.4968 13.8866 50.2045 18.3866 51.3182 25.8093Z" fill="#3769FC"/>
</svg>
