<svg width="48" height="48" viewBox="0 0 48 48" fill="none" xmlns="http://www.w3.org/2000/svg">
<rect width="48" height="48" fill="white"/>
<path d="M44.6026 31.0542H30.6142V46.1496L44.6026 31.0542Z" fill="#7EE5C3"/>
<path d="M34.2128 17.2062H43.6174C42.38 6.90722 34.584 1 24.2514 1C12.4338 1 3.40039 9.38144 3.40039 24.0103C3.40039 38.5773 12.2791 47.0206 24.2514 47.0206C26.5582 47.0206 28.6833 46.7127 30.6142 46.1496C30.6142 45.4288 30.6142 44.4959 30.6142 42.7574V39.5772C30.6142 38.0083 30.6142 39.3652 30.6142 37.5842C30.6142 37.2667 30.6142 37.033 30.6142 36.9575C28.9406 38.1427 26.8011 38.7791 24.3751 38.7938C17.5382 38.7629 12.8669 33.6598 12.8669 24.0103C12.8669 14.5773 17.4763 9.25773 24.437 9.2268C29.6652 9.25773 33.4703 12.2577 34.2128 17.2062Z" fill="#3769FC"/>
</svg>
